<?xml version="1.0" standalone="no"?>
<!DOCTYPE svg PUBLIC "-//W3C//DTD SVG 20010904//EN"
 "http://www.w3.org/TR/2001/REC-SVG-20010904/DTD/svg10.dtd">
<svg version="1.0" xmlns="http://www.w3.org/2000/svg"
 width="1280.000000pt" height="666.000000pt" viewBox="0 0 1280.000000 666.000000"
 preserveAspectRatio="xMidYMid meet">
<g transform="translate(0.000000,666.000000) scale(0.100000,-0.100000)"
fill="#000000" stroke="none">
<path d="M6593 5923 c2 -710 -11 -1184 -32 -1206 -7 -7 -750 -51 -3414 -199
l-768 -42 -179 179 -179 180 -21 190 c-12 105 -23 191 -25 193 -3 3 -242 32
-267 32 -13 0 -18 -8 -18 -25 0 -67 -25 -45 -559 489 -522 522 -526 526 -566
525 -22 0 -132 -13 -245 -28 -161 -22 -204 -31 -202 -42 2 -8 201 -423 443
-923 243 -503 436 -913 432 -917 -5 -5 -45 -14 -88 -19 -143 -18 -258 -61
-270 -102 -13 -39 -7 -172 10 -217 23 -66 59 -106 130 -148 36 -21 64 -43 63
-49 -3 -10 -733 -587 -818 -647 -33 -23 -33 -23 243 14 l232 30 428 210 c236
115 434 209 440 209 7 0 58 -16 113 -35 146 -49 891 -259 1189 -334 168 -42
342 -60 935 -96 1194 -73 1677 -110 1805 -139 33 -8 95 -17 138 -21 59 -5 77
-10 77 -22 0 -21 -78 -148 -230 -377 l-128 -191 -1215 -1130 c-668 -621 -1218
-1136 -1221 -1142 -14 -32 110 -123 166 -123 34 1 135 36 187 67 160 92 904
614 2006 1408 253 183 472 339 486 349 26 16 35 15 290 -43 317 -72 448 -96
634 -116 171 -17 627 -38 665 -30 103 23 182 282 160 526 -10 121 -25 166 -75
242 -48 72 -85 89 -196 95 -113 6 -241 -10 -479 -58 -107 -21 -197 -37 -199
-34 -11 10 23 40 337 298 l323 266 89 0 c49 0 124 5 167 11 141 19 487 113
689 188 80 29 109 33 454 56 162 11 828 37 1680 65 1409 46 1346 42 1595 111
408 114 765 256 887 353 71 57 113 131 104 185 -15 92 -36 182 -50 208 -40 76
-130 144 -311 236 -87 43 -137 78 -235 162 -180 154 -282 219 -419 266 -132
46 -440 88 -834 115 l-242 16 -1260 -71 c-1846 -104 -1864 -105 -1871 -98 -3
3 -128 405 -278 894 l-272 888 -201 45 c-111 25 -205 49 -209 53 -4 4 -11 7
-15 7 -4 0 -7 -332 -6 -737z"/>
</g>
</svg>
